<svg width="39" height="52" viewBox="0 0 39 52" fill="none" xmlns="http://www.w3.org/2000/svg">
<path d="M38.2061 49.3018C37.7568 49.9307 37.2402 50.4023 36.6562 50.7168C36.0723 51.0762 35.5107 51.3232 34.9717 51.458C34.3428 51.6377 33.6689 51.7051 32.9502 51.6602C32.6807 51.6602 32.3887 51.5928 32.0742 51.458C31.8047 51.3682 31.5127 51.2334 31.1982 51.0537C30.8838 50.9189 30.6143 50.6943 30.3896 50.3799C29.7607 48.1338 29.1992 45.9551 28.7051 43.8438C28.2109 41.7324 27.7842 39.8457 27.4248 38.1836C26.9756 36.252 26.5938 34.4326 26.2793 32.7256C25.0664 32.6807 23.2471 32.6807 20.8213 32.7256C18.4404 32.7256 15.8574 32.8604 13.0723 33.1299C12.2188 35.8252 11.5449 38.0938 11.0508 39.9355C10.5566 41.7773 10.1973 43.3047 9.97266 44.5176C9.74805 45.7305 9.6582 46.7188 9.70312 47.4824C9.74805 48.291 9.88281 48.9873 10.1074 49.5713C9.47852 50.2002 8.84961 50.6494 8.2207 50.9189C7.63672 51.2334 7.09766 51.4355 6.60352 51.5254C6.01953 51.6602 5.45801 51.7051 4.91895 51.6602C4.2002 51.5703 3.61621 51.4355 3.16699 51.2559C2.71777 51.1211 2.38086 50.874 2.15625 50.5146C1.97656 50.2002 1.90918 49.7285 1.9541 49.0996C2.04395 48.4707 2.22363 47.6396 2.49316 46.6064C2.7627 45.708 3.25684 44.1133 3.97559 41.8223C4.73926 39.4863 5.59277 36.8359 6.53613 33.8711C4.8291 34.0059 3.50391 33.916 2.56055 33.6016C1.66211 33.2871 1.0332 32.4336 0.673828 31.041C1.39258 30.8164 2.15625 30.6143 2.96484 30.4346C3.81836 30.21 4.62695 30.0078 5.39062 29.8281C6.24414 29.6484 7.12012 29.4912 8.01855 29.3564C8.96191 26.3916 9.92773 23.4717 10.916 20.5967C11.9043 17.7217 12.8252 15.1387 13.6787 12.8477L17.5869 2.40332C17.6768 2.13379 18.1484 1.8418 19.002 1.52734C19.8555 1.21289 20.7988 0.96582 21.832 0.786133C22.8652 0.561523 23.8535 0.449219 24.7969 0.449219C25.7402 0.449219 26.3467 0.651367 26.6162 1.05566C26.751 1.99902 26.9307 3.16699 27.1553 4.55957C27.4248 5.95215 27.6719 7.2998 27.8965 8.60254C28.166 10.1299 28.4805 11.7021 28.8398 13.3193C29.2441 15.5654 29.6709 18.0586 30.1201 20.7988C30.6143 23.5391 31.2207 26.459 31.9395 29.5586C32.6582 32.6582 33.5117 35.8701 34.5 39.1943C35.4883 42.5186 36.7236 45.8877 38.2061 49.3018ZM19.4736 28.2109C20.9111 28.166 22.1016 28.1436 23.0449 28.1436C23.9883 28.1436 24.7969 28.166 25.4707 28.2109L25.2686 27.2002C24.999 25.5381 24.707 23.7637 24.3926 21.877C24.123 19.9902 23.8311 18.126 23.5166 16.2842C23.2471 14.4424 22.9775 12.6904 22.708 11.0283C22.4385 9.36621 22.2139 7.90625 22.0342 6.64844C21.585 7.81641 21.0684 9.23145 20.4844 10.8936C19.9004 12.5107 19.2715 14.2852 18.5977 16.2168C17.9238 18.1484 17.2275 20.1699 16.5088 22.2812C15.835 24.3926 15.1611 26.4814 14.4873 28.5479C15.2959 28.458 16.1045 28.3906 16.9131 28.3457C17.7217 28.3008 18.5752 28.2559 19.4736 28.2109Z" fill="#4A69BD"/>
</svg>
